<?xml version="1.0" encoding="utf-8"?>
<!-- Generator: Adobe Illustrator 25.1.0, SVG Export Plug-In . SVG Version: 6.00 Build 0)  -->
<svg version="1.1" id="Layer_1" xmlns="http://www.w3.org/2000/svg" xmlns:xlink="http://www.w3.org/1999/xlink" x="0px" y="0px"
	 viewBox="0 0 504.6 256.8" enable-background="new 0 0 504.6 256.8" xml:space="preserve">
<g>
	<path fill="#357E9C" d="M154.6,132.8c-1-0.2-3-1-4.6-1.7c-2.2-1.1-3.1-1.7-5.1-3.7c-2.5-2.6-3.4-4-5.3-8.7c-1.6-4-2.4-9-2.4-14.2
		c0-6.7,1.3-13.8,3.9-19.8c2.9-6.7,7.4-12.6,12-15.6c2.1-1.4,3.5-1.7,5.9-1.8l4-0.5c0.9-0.2,1.9-0.2,2.9-0.2c3.1,0.1,6.7,1,9.2,2.4
		c4.2,2.5,6.9,5.6,10.3,12.4c1.8,3.6,2.9,9.2,2.9,15c0,4.2-0.5,6.5-2.2,11.9c-3,9.2-7.3,15.3-14,19.9c-3.3,2.3-5.6,3.5-8.4,4.3
		c-1.7,0.5-3.9,0.6-5.8,0.6C156.7,133,155.5,132.9,154.6,132.8 M160.8,115.2c2.1-1.1,6-5.1,7.6-7.8c1.9-3.2,2.8-5.3,3.4-8.8
		c0.4-1.8,0.6-3.5,0.6-5.1c0-4-1.1-7.2-3.1-9.2c-1.8-1.7-3.4-2.4-6.6-2.6h-1.6c-1.2,0-1.5,0.1-2.1,0.6c-0.5,0.5-1.5,1.8-2.1,3.2
		c-2.5,5.1-3.8,10.7-3.8,16.6c0.1,6.3,1,10,3.1,12.3c0.9,1,1.6,1.5,2.4,1.5C159.2,115.9,159.9,115.7,160.8,115.2"/>
	<path fill="#357E9C" d="M206.2,129.3c-2.5-0.6-5.1-2.7-6.3-5.2c-2-4-3.3-14.2-3.3-26.2l0.1-5.8c0.6-14.1,2.3-25.1,5-30.2
		c1.7-3.6,4.4-5.5,7-5.7h0.4c2.5,0,4.9,1.6,6.2,4.7c0.7,1.8,1.1,3.6,1.1,6.5l-0.2,4.5l-0.6,8c3.6-6.5,5.1-9,7.9-11.9
		c2.9-2.8,4.5-3.7,7.3-3.8h1c1,0,1.6,0.2,2.6,0.6c2.8,1.3,5.4,4.5,7.2,8.9c0.6,1.5,0.8,2.6,0.8,3.5c0,1.4-0.6,2.3-1.9,2.9
		c-0.6,0.4-1.1,0.5-1.7,0.5c-1.4,0-2.8-0.7-4.7-2.3c-0.9-0.8-1.9-1.5-2.2-1.5c-0.6,0-2.9,2.3-4.1,4.3c-3.9,6.2-6.3,14.2-8.8,29
		c-2.3,13.5-2.5,14-4.7,16.4c-1.7,1.9-4,3-6.3,3L206.2,129.3z"/>
	<path fill="#5DAB9E" d="M272,129.6c-3.6-1.1-6-3.6-8.6-9c-6.4-13.1-9.5-29-10.9-56.4c-0.3-5-0.4-9.6-0.4-14.1
		c0-13.1,1-24.3,3.3-35.9c1.8-9.7,3.5-13,6.8-13c2.7,0,3.8,1.6,4.5,6.4c0.4,2.7,0.5,7.3,0.5,27.8c0.1,22.4,0.2,27.4,0.9,34.9
		c0.1,1.1,0.2,1.6,0.3,1.6c0.2,0,0.4-1.5,0.4-4.1c0-1.7,0.3-5.2,0.5-7.9c1.7-19.9,6.7-37.2,13.9-48.2c3.5-5.2,8.6-9.5,13.1-10.9
		c1.6-0.5,3.1-0.7,4.8-0.7c2.8,0,5.6,0.6,8,1.7c3.6,1.7,8.1,6.2,10,10.2c3.1,6.1,4.8,14.9,4.8,24.9c0,5.1-0.2,7.6-1.3,13.4
		c-0.8,4.6-1.7,7.2-3.7,11.1c-5.3,10.7-14,17.7-23.6,19.3c-1.6,0.3-3.1,0.4-4.6,0.4c-2.9,0-5.2-0.5-6.8-1.4c-0.6-0.4-1-0.6-1.1-0.6
		c-0.1,0-0.2,0.5-0.2,1.2c0,2.9,0.6,10.8,1.6,18.3c0.6,5.4,0.9,11,0.9,15.4c0,3-0.2,5.4-0.5,6.8c-1.5,5.9-5.2,9.5-9.7,9.5
		C273.9,130.1,272.9,129.9,272,129.6 M285.2,67.4c1.6-0.3,3.9-1.2,7.1-3c6.3-3.7,8.9-7,11.2-14.3c1.5-4.8,1.8-7.4,2.1-14.7v-3
		c0-7.1-0.6-11.1-2.1-14.7c-0.8-1.7-2.7-3.7-3.5-3.7c-1.3,0-3.5,1.5-5.2,3.3c-6.9,7.5-11,22.6-12.1,44.3l-0.2,4.7l0.1,1.3
		c0.1,0.1,0.2,0.2,0.5,0.2L285.2,67.4z"/>
	<path fill="#5DAB9E" d="M377,144.8c-3.5-1.4-5.7-4-7.9-9.7c-5.4-13.6-7.1-29.7-6.4-57.1c0.1-5,0.4-9.6,0.7-14
		c1-13,2.9-24.1,6.1-35.6c2.6-9.6,4.5-12.6,7.8-12.4c2.7,0.2,3.6,1.9,4,6.8c0.2,2.7-0.1,7.3-1.7,27.7c-1.7,22.4-2,27.3-1.9,34.9
		c0,1.1,0.1,1.6,0.2,1.6c0.2,0,0.5-1.4,0.7-4.1c0.1-1.6,0.7-5.2,1.1-7.8c3.2-19.7,9.6-36.6,17.7-46.9c3.9-4.9,9.4-8.8,14-9.9
		c1.6-0.3,3.2-0.5,4.8-0.4c2.7,0.2,5.5,1,7.8,2.3c3.4,1.9,7.6,6.9,9.2,11c2.6,6.3,3.6,15.2,2.8,25.2c-0.4,5.1-0.8,7.6-2.3,13.3
		c-1.2,4.5-2.3,7-4.5,10.8C422.9,90.6,413.7,97,404,97.8c-1.6,0.1-3.1,0.1-4.6,0c-2.8-0.2-5.2-0.9-6.7-1.9c-0.5-0.4-1-0.7-1-0.7
		c-0.1,0-0.2,0.4-0.3,1.2c-0.2,2.9-0.2,10.8,0.1,18.4c0.1,5.4,0,11.1-0.3,15.4c-0.2,3-0.6,5.4-1,6.7c-1.9,5.7-6,9-10.5,8.7
		C378.8,145.4,377.9,145.1,377,144.8 M395.1,83.8c1.6-0.2,3.9-0.9,7.3-2.5c6.6-3.2,9.4-6.3,12.3-13.4c1.8-4.6,2.4-7.2,3.3-14.5
		l0.2-3c0.6-7.1,0.3-11.1-0.9-14.8c-0.7-1.8-2.4-3.9-3.2-3.9c-1.3-0.1-3.6,1.2-5.5,2.9c-7.5,7-12.8,21.7-15.6,43.2l-0.6,4.7l0,1.3
		c0.1,0.1,0.2,0.2,0.4,0.2L395.1,83.8z"/>
	<path fill="#357E9C" d="M85.1,128.6c0-0.4,0-0.8,0-1l0-1.3c0.1-23.2,0-38.4-0.4-43.9c-0.2-3.6-0.9-12.8-1.5-22.3
		c-0.7-10.5-1.6-22.2-1.8-26.9c30.8,0.4,34.2,25,34.2,35.6C115.6,90.9,95.3,122,85.1,128.6 M120,35.2c-8.7-11.8-22.1-18-39-18
		c-8,0-15.9,0.5-19.8,4.4c-1.2,1.2-2.2,2.2-3.1,20.6c-0.4,9.2-0.7,21.2-0.7,32c0,20.6,1,41.4,2.8,57.1c1,8.2,2.3,19.3,11.9,19.3
		c26.9,0,58.6-52,58.6-78.7C130.8,57.7,127,44.7,120,35.2"/>
	<path fill="#5DAB9E" d="M338.3,137.1c-3.9-1.8-5.5-6.2-6.4-16.3c-0.8-9.5-1.2-19.1-1.2-26.9c0-5.4,0.2-9.9,0.6-12.8
		c0.6-3.7,1.9-7.9,3.3-9.9c1.7-2.4,3.7-3.5,6.3-3.5l1.2,0.1c2.7,0.4,4.3,1.5,5.6,4c1.3,2.4,1.9,5.1,1.9,11.1c0,3.4-0.2,7.9-0.6,14
		c-0.4,6.3-0.6,12.5-0.6,18.4c0,3.2,0,6.3,0.2,9.4v1.4c0,1.6-0.1,3.4-0.3,4.7c-0.5,3.7-1.4,5.2-3.7,6.4c-0.9,0.5-2.1,0.7-3.3,0.7
		C340.3,137.8,339.2,137.5,338.3,137.1"/>
	<path fill="#F5BD26" d="M341,28.8c0,0,2.7-9.8,6.7-9.3c4.2,0.6,6.2,8.9,4.3,16.1c-1.8,7.3-5,19.5-9.4,19.8
		c-3.6,0.2-9.7-7.7-11.6-17.1c-1.9-9.4-2.5-15.2,1.3-16.4C336.2,20.8,340.3,26.7,341,28.8"/>
	<path fill="#F5BD26" d="M114.7,187.1c0-0.5-1.7-0.6,0.8-1.3c7.9-2,14.7-1.3,22.6-3l0.5-0.9c6.3-0.5,12.8-1,19.5-1.5
		c12.2-1.5,24.4-3,36.6-4.1c-0.3-0.3-0.5-0.5,0.7-0.7c2.5-0.3,5.6-0.5,8.9-0.6c3.3-0.1,6.9-0.2,10.5-0.3c1.1-0.1,2.1-0.2,3.2-0.3
		c0.8-0.2,1-0.5,1.2-0.7c3.3-0.1,6.2-0.1,8.9-0.1c4.5-0.3,8.9-0.6,13.4-0.8c2.2-0.1,4.5-0.2,6.8-0.3l3.4-0.1l3.3,0
		c8.9-0.2,18,0,27.2,0.5c18.4,0.9,37.4,3,57,6.1c4.2,0.4,8.4,1,12.5,1.6c4.1,0.6,8.2,1.2,12.2,2c5.9,1.3,12.5,2.9,19,4.9
		c3.3,1,6.5,1.9,9.7,2.8c3.1,1,6.1,1.9,8.9,2.8c-0.2-0.8,1.3-0.9,3.7-0.8c2.4,0.1,5.7,0.6,8.8,1.1c6.2,1,12,1.9,9.7-0.3
		c3.8,1.2,8.3,3.1,12.1,4.4c3.8,1.3,6.8,2.3,7.2,2.1c1.3-0.7,3.6-1.1,8.1-0.5c4.5,0.6,11.2,2.4,21.3,6.4c1.9,0.9,4.1,2,6.2,3.2
		c2.2,1.2,4.4,2.3,6.4,3.7c4,2.6,7.4,4.8,8.9,5.4c2.1,0.9,0.1-0.9-2.1-2.6c-2.2-1.8-4.4-3.6-2.1-2.7l-5.2-3.2l-5.3-2.8
		c-3.5-1.8-7-3.8-10.5-5.4c-3.5-1.6-7.1-3.3-10.6-4.9c-3.6-1.5-7.1-2.9-10.7-4.4c-14.3-5.6-28.7-10.6-43.3-14.8
		c-7.3-2.3-14.6-4.1-22-6.1c-3.7-0.9-7.4-1.8-11.1-2.7c-3.7-0.9-7.4-1.8-11.1-2.6c-3.7-0.8-7.5-1.6-11.2-2.4
		c-3.7-0.8-7.5-1.5-11.3-2.2c-7.5-1.5-15.2-2.7-22.9-4c-5.3-0.5-18.1-2.2-35.1-3.6c-4.3-0.3-8.8-0.6-13.5-0.9
		c-4.7-0.1-9.7-0.2-14.8-0.4c-5,0-10.2,0.1-15.4,0.1c-5.2,0.2-10.6,0.3-15.9,0.5c-21.4,0.8-43.1,2.7-61.8,4.9
		c-4.7,0.5-9.1,1.1-13.4,1.7c-4.2,0.6-8.2,1-11.9,1.6c-7.3,1.2-13.5,2-18,2.8c-1.1,0.2-2.2,0.4-3.3,0.6c-9.8,1.7-20.7,3.9-31,6.4
		c-5.2,1.3-10.3,2.6-15,4c-4.8,1.4-9.2,2.8-13.3,4.2c-3.6,1.4-7.3,2.9-10.9,4.3c-1.8,0.8-3.7,1.5-5.5,2.2l-5.4,2.4
		c3.6-0.7,6.9-1.4,9.9-1.8c-3.8,1.1-7.6,2.4-10.8,3.5c-3.2,1.1-5.8,2.1-7.1,2.8c-15.5,7.1-5.9,4.9,0.7,4.4c4.6-0.8-0.9,2.4,6.3,0.9
		c-5,1.6-7.4,2.5-12.3,4.3c-0.1,0.5,3.6-1,7-2.4c3.4-1.2,6.5-2.2,5-1.1c-4.9,1.2-9.9,3.8-14.8,5.6c1,0.2,5.3-1.3,9.2-2.7
		c3.9-1.4,7.7-2.4,7.4-1.8c-1.3,0.6-4.9,1.3-8.1,2.4c-3.3,1-6.3,2.1-6.5,2.8c-0.1,0.3,4.8-1.5,7.2-2.4c-7.4,3-13,5.5-15,7
		c-1,0.7-1.1,1.1-0.1,1c1-0.1,3.1-0.7,6.6-1.6c-2.4,0.8-5.2,1.9-8,3c-2.9,1.1-5.7,2.2-8.1,3.3c0,0,0,0,0,0c2.4-1,6.7-2.5,9-3.5
		c-2.8,1.2-5.5,2.3-8.3,3.5c0.5,0,1.1-0.1,1.7-0.1c2.1-0.7,4.2-1.5,6.4-2.4c-1.8,0.8-3.7,1.5-5.5,2.3c1.5-0.2,3.3-0.5,5.1-0.9
		c6.8-2.1,13.6-3.2,17.2-4.6c3.6-1.4,7.3-2.4,11-3.6c3.7-1.2,7.4-2.4,11.1-3.4l11.2-3.2l11.3-2.8C84.2,193,99.4,189.7,114.7,187.1"
		/>
	<path fill="#5DAB9E" d="M81.5,254.6c-0.8-0.1-1.3-0.4-2-1.5c-0.7-0.9-1.9-3-2.6-4.6c-0.3-0.7-1-2.6-1.2-3.2
		c-0.1-0.3-0.2-0.6-0.2-0.7c-0.1-0.1-0.7,0-1.6,0.2c-1.1,0.3-2.7,0.8-3.6,1.2l-0.5,0.2c0.7,3.1,1,4.5,1.7,7c0.6,2.2,0.6,2.2,0.5,2.6
		c-0.1,0.5-0.3,0.7-0.7,0.9c-0.1,0.1-0.2,0.1-0.3,0.1c-0.7,0.2-1.5-0.2-2-1.1c-0.7-1-2.1-3.9-2.7-5.5c-0.1-0.4-0.5-1.5-0.8-2.6
		l-0.6-2.2c-0.6-2.3-1.3-5.4-1.6-7.4l-0.4-2.2c-0.1-0.4-0.2-1.1-0.2-1.5c0-0.5-0.2-1.4-0.3-2.1c-0.1-0.7-0.2-1.6-0.3-2.1l-0.1-1.4
		c-0.2-2-0.3-4-0.2-4.6c0.1-0.9,0.4-1.3,1-1.4c1-0.3,1.9,0.5,2.8,2.4c0.3,0.6,0.6,1.9,1,3.1c0.2,0.9,0.4,1.8,0.5,2.4l0.4,2.4
		c0.1,0.6,0.3,1.5,0.4,2.1c0.1,0.6,0.2,1.5,0.3,2.1c0.1,0.6,0.3,1.6,0.4,2.3c0.2,1.3,0.4,2.1,0.5,2.6c0.1,0.3,0.1,0.4,0.2,0.4
		l0.7-0.3c1.3-0.7,2.8-1.3,3.9-1.6l0.8-0.2l-0.7-3.5c-0.5-2.2-1.2-6.3-1.2-6.8l-0.2-1.9c-0.4-3.1-0.5-5.4-0.2-6.2
		c0.2-0.6,0.5-1,1-1.1c0.1,0,0.2,0,0.3,0c0.8,0,1.5,0.6,2.1,1.8l0.4,0.7c1.1,4.6,1.4,5.5,1.8,7.8c0.5,2.9,0.7,4.3,0.9,5.1l0.4,2.1
		c0.2,1.1,1.2,5,2,8.1c0.5,1.9,0.9,3.5,1.1,4.2c0.2,0.7,0.5,1.5,0.6,1.7c0.1,0.3,0.2,0.4,0.3,0.6c0,0.2,0,0.3,0,0.6
		c-0.1,0.5-0.6,0.9-1.1,1.1C81.8,254.6,81.7,254.6,81.5,254.6"/>
	<path fill="#5DAB9E" d="M89.4,241c0.8-0.5,1.3-1.3,1.6-2.2c0.1-0.3,0.1-0.6,0-0.8c0-0.2-0.1-0.3-0.2-0.4c-0.2-0.2-0.6-0.3-0.9-0.3
		l-0.1,0c-0.5,0.2-1.2,1.1-1.4,2.1c-0.2,0.5-0.3,1.6-0.2,1.8c0,0.1,0.1,0.1,0.5,0C88.9,241.2,89.1,241.1,89.4,241 M92.5,250.7
		c-2.3,0-4-0.6-5.4-2.1c-1.1-1.1-1.9-2.6-2.3-4.2c-0.7-2.9,0.2-6.5,2-8.6c0.9-1,1.7-1.6,2.9-1.8l0.1,0c1.3-0.3,2.3-0.1,3.6,0.5
		c1,0.5,1.6,1.3,1.8,2.4c0.2,1.1,0.1,2.2-0.6,3.6c-0.5,1.2-1.9,2.8-3,3.3c-0.8,0.5-1.3,0.9-1.9,1c-0.2,0-0.4,0.1-0.6,0l-0.1,0
		c0,0,0,0,0,0l0.1,0.1c0.3,0.4,0.6,0.7,1.1,1c0.6,0.3,1.4,0.6,2,0.7c0.5,0.1,1.1,0.1,1.7,0c0.4-0.1,0.7-0.2,1-0.5
		c0.2-0.1,1.2-0.9,1.8-1.7c1.1-1.4,1.3-1.5,1.6-1.6c0.4-0.1,0.6,0,0.8,0.6l0.1,0.3c0.1,0.8,0.1,1.6-0.3,2.3
		c-0.3,0.7-0.9,1.7-1.5,2.3c-0.9,1-2.3,1.7-3.6,2C93.3,250.7,92.9,250.7,92.5,250.7"/>
	<path fill="#5DAB9E" d="M107.3,248.1c-0.7-0.1-1.3-0.3-2-0.8c-1.4-0.9-2-2.1-3.1-5.8l-1.7-6.2c-0.1-0.6-0.4-1.5-0.6-2.5
		c-0.4-1.7-0.7-3.6-0.8-4.3c0-0.4-0.1-1.1-0.2-1.5c-0.7-4.7-0.2-7.8,1.2-8.6c0.1,0,0.2-0.1,0.4-0.1l0,0c0.8-0.2,1.6,0.5,2.2,1.8
		c0.2,0.4,0.4,1.1,0.5,1.9c0.2,0.9,0.3,1.9,0.5,3c0.2,2.4,0.6,5.5,1.2,9.6c0.1,1,0.5,2.9,0.9,4.6c0.4,1.8,0.7,3.4,0.9,4
		c0.7,2.1,1,2.6,1.7,2.7c0.5,0.1,0.7,0.3,0.8,0.7c0.2,0.7-0.5,1.4-1.3,1.5C107.8,248.2,107.5,248.2,107.3,248.1"/>
	<path fill="#5DAB9E" d="M119.7,238.2c0.6-0.5,0.9-0.8,1.1-1.4c0.4-1.1,0.4-2.5,0.1-4.2c-0.2-1-0.5-2-0.7-2.1l0,0
		c-0.4,0.1-1,2.8-1.2,5.3c-0.1,0.8-0.2,2.6-0.2,2.8c0,0.1,0.1,0.1,0.2,0.1C119.1,238.6,119.3,238.5,119.7,238.2 M116.8,253.2
		c-1.1-0.1-1.8-0.8-2.5-2.7c-0.8-2.2-1.4-4.3-2.4-9.5l-0.4-2.2c-1.3-6.7-1.6-10.8-1.1-12.9c0.2-0.7,0.6-1.1,1.1-1.2l0,0
		c0.5-0.1,1,0.1,1.4,0.7c0.4,0.6,0.7,1.5,1.2,3.9c0.2,1.2,0.5,2.6,0.5,3.2c0.1,0.6,0.2,1.5,0.3,2l0.2,0.8c0.9-5.4,1.7-7.9,3.8-9
		c0.3-0.2,0.5-0.2,0.9-0.3l0.4-0.1c1-0.1,1.6,0,2.5,0.6c0.5,0.3,0.8,0.6,1.1,1.1c0.8,1.1,1.4,2.6,1.7,4.1c0.2,1.2,0.3,2.4,0.2,3.5
		c-0.1,1.2-0.6,2.9-1,3.6c-0.4,0.7-1,1.5-1.6,1.9c-0.6,0.5-1.2,0.7-1.8,0.8c-0.6,0.1-1.1,0.1-1.8-0.1c-0.3-0.1-0.6-0.1-0.6-0.1
		c0,0,0,1,0.1,2.1c0.1,2,0.2,2.8,0.3,4.9c0.2,2.7,0,3.7-0.9,4.3c-0.3,0.2-0.6,0.4-0.9,0.4C117.1,253.2,116.9,253.2,116.8,253.2"/>
	<path fill="#5DAB9E" d="M133.3,243.1c-1.1-0.3-1.7-1.4-2.4-4c-0.6-2.5-1.2-5-1.5-7.1c-0.2-1.4-0.4-2.6-0.4-3.4c0-1,0.2-2.2,0.4-2.8
		c0.3-0.7,0.8-1.1,1.5-1.2l0.3,0c0.7,0,1.2,0.2,1.7,0.8c0.4,0.6,0.7,1.3,1,2.9c0.2,0.9,0.3,2.1,0.5,3.7c0.2,1.7,0.4,3.3,0.7,4.9
		c0.1,0.9,0.3,1.7,0.5,2.5l0.1,0.4c0.1,0.4,0.1,0.9,0.1,1.3c0,1-0.1,1.4-0.7,1.9c-0.2,0.2-0.5,0.3-0.8,0.3
		C133.9,243.2,133.6,243.2,133.3,243.1 M129.3,222.5c-0.6-0.2-0.9-0.5-1.2-1c-0.2-0.2-0.2-0.4-0.3-0.6l-0.1-0.8
		c-0.1-1.2,0-1.7,0.4-2.3c0.3-0.6,0.7-0.8,1.4-0.9l0.4-0.1c0.3,0,0.4,0,0.7,0.1c0.9,0.3,1.3,1.1,1.6,2.5l0,0.2
		c0.1,0.8,0.1,1.2-0.2,1.8c-0.3,0.7-1,1.1-1.7,1.3C130.1,222.7,129.7,222.7,129.3,222.5"/>
	<path fill="#5DAB9E" d="M151.1,240.4c-0.6-0.3-1.1-1-1.7-2.7c-0.3-0.8-0.5-1.7-0.7-2.7c-0.2-1.5-0.3-3.2-0.4-5.8l0-0.3
		c-0.6,0.8-1.6,4-2.2,6.7c-0.8,3.8-1.1,4.5-1.5,5.2c-0.4,0.6-1,1-1.7,1.1c-0.2,0-0.4,0-0.6,0c-0.7-0.1-1.4-0.6-1.9-1.3
		c-0.4-0.6-0.9-2-1.2-3c-0.1-0.4-0.2-1.1-0.3-1.9c-0.2-1.5-0.5-3.5-0.5-4.5c-0.1-2-0.1-4.7,0.1-5.6c0.1-0.6,0.4-1.2,0.8-1.5
		c0.2-0.1,0.3-0.2,0.5-0.2l0.2,0c0.6,0,1.1,0.2,1.5,0.8c0.3,0.5,0.3,0.5,0.6,1.7l0.1,0.4c0.2,1.1,0.3,2.3,0.4,4.5
		c0.1,1,0.2,2,0.3,2.5c0,0.2,0.1,0.4,0.1,0.4c0,0,0.2-0.5,0.4-1.2c0.8-2.4,1.7-4.6,3-7c1-1.8,1.8-2.5,3-2.7c1.1-0.2,2,0.3,2.6,1.5
		c0.2,0.5,0.3,0.6,0.5,2.4c0.2,1.4,0.3,2.2,0.3,3.3l0.1,3.2c0.1,3.2,0.1,5.7,0,6.1c-0.2,0.4-0.5,0.7-1,0.8
		C151.6,240.6,151.3,240.5,151.1,240.4"/>
	<path fill="#5DAB9E" d="M161.7,227.4c0.6-1,0.9-2.2,1-3.5c0-0.3,0-0.5,0-0.6c0,0,0-0.1,0-0.1l0,0c0,0-0.1,0.1-0.2,0.3
		c-0.9,1.2-1.5,3.1-1.5,4.6l0,0.4C161.2,228.2,161.3,228.2,161.7,227.4 M164.1,248c-1.5-0.1-2.6-1-2.8-2c0-0.2,0-0.4,0.1-0.7
		c0.2-0.4,0.5-0.7,1-0.8c0.2,0,0.4,0,0.7,0c0.2,0,0.4,0.1,0.6,0.1c0.3,0,0.4-0.3,0.8-0.8c1-1.8,1.2-4.4,0.6-8.9l-0.2-1.5
		c-0.2-1.3-0.4-2.3-0.4-2.4c0,0-0.2,0.2-0.4,0.5c-0.8,1.3-2,2-3.2,2.1c-1.3,0.2-2.6-0.4-3.5-1.7c-0.4-0.6-0.6-1.2-0.7-2
		c-0.1-0.4-0.1-0.9,0-1.4c0.1-1,0.3-1.7,0.7-3c0.8-2.4,2.3-4.4,3.9-5.4c0.6-0.4,1.2-0.6,1.9-0.7c0.6-0.1,1.2,0,1.6,0.3
		c0.4,0.3,0.7,0.7,0.8,1c0,0.2,0.1,0.3,0.4,0.6c0.8,0.7,2,3.6,2.8,6.9c0.3,1,0.5,2.4,0.7,3.9c0.3,2.5,0.5,5.2,0.5,6.9
		c-0.1,2.6-0.5,4.4-1.3,6.1c-0.8,1.6-2.3,2.8-3.8,2.9L164.1,248z"/>
	<path fill="#5DAB9E" d="M191.2,238.4c-0.2-0.1-0.4-0.2-0.5-0.3c-0.4-0.2-1.4-1.4-1.7-2c-0.6-1.1-1.4-3.4-1.8-5.3
		c-0.1-0.5-0.2-1.1-0.3-1.4c-0.1-0.3-0.3-1.1-0.4-1.8c-0.1-0.7-0.2-1.3-0.2-1.4l-0.5,0.1c-0.3,0.1-0.6,0.1-0.8,0.2
		c-0.3,0-0.6,0-0.9-0.1c-0.5-0.1-0.8-0.4-0.8-0.8l0-0.2c0-0.6,0.5-1.1,1.8-1.7c0.4-0.2,0.7-0.3,0.8-0.4c0.1-0.1,0.1-0.4,0-1.1
		c-0.1-1.3-0.2-4.8-0.2-6.2c0.1-1.8,0.1-2.4,0.3-3.6c0.3-2.2,0.6-3.3,1.3-4.7c0.4-0.8,0.6-1,1.1-1.6c0.8-0.8,1.6-1.3,2.5-1.6
		c0.2,0,0.4-0.1,0.6-0.1l0.2,0c0.5,0,1,0,1.4,0.1c0.6,0.2,1.6,0.6,2,1c0.6,0.6,1.2,1.5,1.3,2.1s-0.3,1.4-0.9,1.8
		c-0.2,0.1-0.4,0.2-0.5,0.2c-0.4,0-0.8-0.2-1.3-0.7c-0.5-0.5-1.3-0.9-1.5-0.9c-0.1,0-0.6,0.5-0.8,0.9c-0.2,0.4-0.6,2-0.8,2.9
		c-0.3,2.2-0.4,6.1-0.1,9.1l0.1,1.1c1.2-0.1,1.3-0.2,2-0.2c0.5,0,0.8-0.1,1.4,0c1.5,0.2,2,0.4,2.1,1.2l0,0.2c0,0.2-0.4,0.7-0.9,0.9
		c-0.7,0.4-1.8,0.7-3.1,0.8c-0.7,0.1-1.3,0.2-1.3,0.2c0,0,0,0.2,0,0.5c0.1,1.3,0.8,5.2,1.4,7.5c0.2,0.8,0.4,1.9,0.5,2.4l0.3,1.8
		c0,0.2,0,0.3-0.1,0.5c-0.1,0.2-0.3,0.4-0.4,0.4c-0.2,0.1-0.4,0.2-0.7,0.2C191.7,238.5,191.4,238.4,191.2,238.4"/>
	<path fill="#5DAB9E" d="M204.1,229.2c0.5-0.6,1.6-2.4,2.4-3.7c0.8-1.4,2.3-4.5,2.3-4.7l0,0c-0.1,0-1.4,1.4-1.8,2
		c-0.8,1-1.9,2.9-2.4,4.2c-0.4,1-0.8,2.3-0.8,2.6c0,0,0,0.1,0,0C203.7,229.7,203.9,229.5,204.1,229.2 M202,234.3
		c-1.1-0.1-2-0.8-2.3-1.8c-0.1-0.3-0.2-0.7-0.2-1.2c0-0.5,0-1,0-1.4c0.2-1.2,0.8-3.1,1.7-5.1c1.7-3.7,4.1-6.5,6.9-8
		c0.9-0.4,1.6-0.7,2.7-0.8l0.6-0.1c0.4,0,0.5,0,0.9,0.1c0.6,0.2,0.9,0.6,1,1c0,0.2,0,0.4-0.1,0.5c-0.1,0.1-0.1,0.2-0.1,0.3l0.1,0.3
		c0,0.1,0.1,0.4,0.1,0.9c0.1,0.9,0.1,2.4,0.2,4.8l0.1,2c0.1,2.2,0.4,4,0.8,5c0.1,0.3,0.2,0.4,0.4,0.5c0.4,0.2,0.6,0.4,0.6,0.7
		c0,0.5-0.4,0.9-1,1.2c-0.1,0-0.3,0-0.4,0.1c-1.1,0.1-2.3-1-3.1-3.1c-0.4-1-0.6-2-0.8-3.3l-0.1-1c-1.9,3.9-3.3,6.3-5.2,7.4
		c-0.7,0.5-1.5,0.7-2.2,0.8C202.3,234.3,202.1,234.3,202,234.3"/>
	<path fill="#5DAB9E" d="M222.2,233.6c-0.2,0-0.5,0-0.6-0.1c-0.7-0.2-1.3-0.7-1.8-1.4c-0.3-0.5-1-2.3-1.2-3.2
		c-0.5-1.9-0.5-2.5-0.6-5.4c-0.1-2.4-0.1-3,0-4.3c0.4-4.4,1.2-6.4,2.7-6.4c0.7,0,1.4,0.5,1.7,1.3c0.1,0.3,0.2,1,0.2,1.7
		c0,0.7,0,1.5,0,2.3c-0.1,1.9-0.1,3.7-0.1,5.2l0.1,1.9c0.5-1.6,1.4-4,1.8-5c0.9-2.1,2.1-4.3,2.8-5c0.7-0.7,1-0.8,1.8-0.9
		c0.6,0,0.7,0,1.1,0.2c0.4,0.2,1,0.7,1.2,1.1c0.3,0.5,0.4,1.3,0.5,2.7c0,0.5,0,1.2,0,2v2c0,0,0.4-0.6,0.7-1.2c1.1-2,3.3-5.3,3.8-5.9
		c0.5-0.5,1.1-0.7,1.6-0.7c0.9,0,1.8,0.5,2.2,1.6c0.2,0.4,0.3,0.9,0.3,1.6c0,1.1-0.1,2.8-0.3,5.9c-0.1,2-0.3,4.8-0.3,5.3
		c0,0.3,0.1,0.7,0.2,1c0.1,0.2,0.1,0.4,0.1,0.6c0,0.3-0.1,0.5-0.2,0.8c-0.2,0.3-0.6,0.4-0.9,0.4c-0.7,0-1.4-0.4-1.9-1.2
		c-0.7-1.3-1.3-4.3-1.4-6.7l0-1.1c0-0.6,0.1-1.1,0.1-1.2l0-0.1c0,0,0,0,0,0c-0.1,0-0.6,0.9-1,2.1c-1.4,3.5-1.9,4.3-3,4.8
		c-0.2,0.1-0.5,0.1-0.8,0.2c-0.4,0-0.9-0.1-1.2-0.2c-1.3-0.6-2-2.1-2.2-4.9l-0.1-1.2c-0.5,1.2-0.9,2.3-1.9,5.9
		c-0.3,1-0.5,2.1-0.6,2.5C224.5,232.5,223.6,233.5,222.2,233.6L222.2,233.6z"/>
	<path fill="#5DAB9E" d="M245.8,211.7c-0.5-0.3-0.8-0.6-1.1-1.2c-0.1-0.3-0.2-0.4-0.2-0.7l0-0.8c0.1-1.2,0.2-1.7,0.7-2.2
		c0.4-0.5,0.9-0.7,1.6-0.7l0.4,0c0.3,0,0.4,0.1,0.7,0.2c0.8,0.5,1.2,1.3,1.2,2.7l0,0.2c0,0.8-0.1,1.2-0.4,1.7c-0.4,0.6-1.1,1-1.8,1
		C246.6,212,246.2,211.9,245.8,211.7 M246.5,232.7c-1-0.5-1.5-1.7-1.8-4.3c-0.3-2.5-0.4-5.1-0.4-7.2c0-1.5,0-2.7,0.1-3.4
		c0.1-1,0.5-2.1,0.9-2.7c0.4-0.6,1-1,1.7-1l0.3,0c0.7,0.1,1.2,0.4,1.5,1c0.4,0.6,0.5,1.4,0.6,3c0,0.9,0,2.1-0.1,3.8
		c-0.1,1.7-0.1,3.4-0.1,4.9c0,0.9,0,1.7,0.1,2.5l0,0.4c0,0.4,0,0.9-0.1,1.3c-0.1,1-0.4,1.4-1,1.7c-0.2,0.1-0.6,0.2-0.9,0.2
		C247.1,232.9,246.8,232.8,246.5,232.7"/>
	<path fill="#5DAB9E" d="M257.3,232.7c-0.7-0.3-1.2-0.6-1.8-1.2c-1.2-1.2-1.6-2.4-1.8-6.3l-0.4-6.4c0-0.6,0-1.5,0-2.6
		c0-1.7,0-3.7,0.1-4.4c0-0.4,0.1-1.1,0.1-1.5c0.3-4.7,1.4-7.7,3-8.1c0.1,0,0.2-0.1,0.4-0.1h0c0.9,0,1.5,0.8,1.8,2.2
		c0.1,0.5,0.1,1.1,0.1,1.9c0,0.9-0.1,1.9-0.2,3c-0.3,2.4-0.5,5.5-0.8,9.6c-0.1,1-0.1,2.9-0.1,4.7c0,1.8,0,3.5,0.1,4.1
		c0.2,2.2,0.4,2.7,1.1,3c0.5,0.2,0.6,0.4,0.6,0.9c0,0.7-0.7,1.2-1.6,1.2C257.8,232.8,257.5,232.8,257.3,232.7"/>
	<path fill="#5DAB9E" d="M265,211.7c-0.5-0.3-0.8-0.6-1-1.2c-0.1-0.3-0.2-0.4-0.2-0.7l0.1-0.8c0.1-1.2,0.3-1.7,0.8-2.2
		c0.4-0.5,0.9-0.7,1.6-0.7l0.4,0c0.3,0,0.4,0.1,0.7,0.3c0.8,0.5,1.1,1.3,1.1,2.7l0,0.2c0,0.8-0.1,1.2-0.5,1.7
		c-0.5,0.6-1.1,0.9-1.9,0.9C265.7,212,265.3,211.9,265,211.7 M265.2,232.7c-1-0.5-1.5-1.7-1.7-4.4c-0.2-2.5-0.3-5.1-0.2-7.2
		c0-1.5,0.1-2.7,0.2-3.4c0.2-1,0.5-2.1,0.9-2.7c0.5-0.6,1-0.9,1.7-0.9l0.3,0c0.7,0.1,1.2,0.4,1.5,1.1c0.3,0.6,0.5,1.4,0.5,3
		c0,0.9-0.1,2.1-0.2,3.8c-0.1,1.7-0.2,3.4-0.2,4.9c0,0.9,0,1.7,0,2.5l0,0.4c0,0.4,0,0.9-0.1,1.3c-0.1,1-0.4,1.4-1,1.7
		c-0.2,0.1-0.6,0.2-0.9,0.2C265.7,232.9,265.4,232.8,265.2,232.7"/>
	<path fill="#5DAB9E" d="M277.5,222.1c0.8-0.3,1.6-0.9,2.1-1.7c0.2-0.3,0.2-0.6,0.2-0.8c0-0.2,0-0.3-0.1-0.4
		c-0.2-0.3-0.5-0.4-0.8-0.5l-0.1,0c-0.6,0.1-1.4,0.8-1.9,1.7c-0.3,0.5-0.7,1.4-0.7,1.7c0,0.1,0,0.1,0.5,0.2
		C276.9,222.2,277.2,222.2,277.5,222.1 M278,232.4c-2.3-0.6-3.7-1.6-4.7-3.4c-0.8-1.3-1.2-3-1.1-4.7c0.1-3,1.8-6.3,4.1-7.8
		c1.1-0.8,2.1-1.1,3.3-1l0.1,0c1.3,0,2.3,0.5,3.3,1.4c0.8,0.8,1.2,1.6,1.1,2.8c0,1.1-0.5,2.2-1.5,3.4c-0.8,1-2.6,2.2-3.7,2.5
		c-0.8,0.2-1.5,0.5-2.1,0.5c-0.2,0-0.4,0-0.5-0.1l-0.1,0c0,0,0,0,0,0l0,0.1c0.1,0.5,0.4,0.9,0.8,1.3c0.5,0.5,1.2,1,1.8,1.2
		c0.5,0.2,1.1,0.4,1.7,0.4c0.4,0,0.7,0,1.1-0.2c0.2-0.1,1.4-0.6,2.2-1.2c1.4-1,1.6-1.1,1.9-1.1c0.4,0,0.6,0.2,0.6,0.8l0,0.3
		c-0.1,0.8-0.3,1.5-0.8,2.2c-0.4,0.6-1.3,1.4-2.1,1.8c-1.2,0.7-2.7,1.1-4,1.1C278.8,232.5,278.4,232.5,278,232.4"/>
	<path fill="#5DAB9E" d="M292,233.5c-1.5-0.4-2.4-1.2-2.9-2.3c-0.3-0.6-0.5-1.5-0.5-2.1l0-0.3c0-0.9,0.5-1.8,1.3-2.5
		c0.5-0.5,0.5-0.5,0.9-0.5c0.4,0,0.6,0.2,0.7,0.6c0,0.1,0,0.2,0,0.3c0,0.2-0.1,0.5-0.2,1l-0.1,0.4c0,0.8,0.2,1.6,0.6,1.9
		c0.2,0.2,0.5,0.3,0.8,0.3l0.4,0c0.7-0.1,1.2-0.4,1.6-0.9c0.1-0.2,0.2-0.4,0.2-0.6c0-0.7-0.7-1.8-2.2-3.5c-1.6-1.7-2.4-3-2.7-4.5
		c-0.1-0.6-0.1-0.7-0.1-1.5c0.1-1,0.2-1.4,0.8-2.4c0.5-0.8,1.6-1.8,2.3-2.1c0.7-0.3,1.5-0.5,2.2-0.4l0.1,0c0.7,0,1.3,0.2,2,0.6
		c0.5,0.3,0.7,0.4,1.1,0.8c0.9,1,1.1,1.5,1,2.5c0,0.5-0.1,0.7-0.2,1c-0.4,0.9-1.1,1.5-1.7,1.5l-0.2,0c-0.4,0-0.5-0.2-0.7-1
		c-0.1-0.6-0.2-0.7-0.5-1c-0.4-0.5-0.9-0.8-1.3-0.8c-0.2,0-0.5,0.1-0.7,0.2c-0.2,0.1-0.2,0.2-0.2,0.4c0,0.3,0,0.4,0.5,1.1
		c0.3,0.4,0.5,0.7,1.3,1.4c1,0.9,1.6,1.6,2.2,2.5c1,1.5,1.5,3.1,1.4,4.7l0,0.3c-0.1,1.3-0.8,2.6-1.8,3.5c-0.9,0.8-1.7,1.2-3.1,1.5
		c-0.4,0.1-0.8,0.1-1.2,0.1C292.9,233.7,292.5,233.7,292,233.5"/>
	<path fill="#5DAB9E" d="M319.8,238.2c-0.1-0.1-0.4-0.2-0.5-0.3c-0.4-0.3-1.1-1.6-1.4-2.3c-0.4-1.2-0.8-3.6-0.8-5.5
		c0-0.5,0-1.1,0-1.4c0-0.3,0-1.1,0-1.9c0-0.7,0-1.4,0-1.4l-0.5,0c-0.3,0-0.6,0-0.8,0c-0.3,0-0.6-0.1-0.8-0.3
		c-0.5-0.2-0.7-0.5-0.6-0.9l0-0.2c0.1-0.6,0.7-1,2-1.4c0.4-0.1,0.8-0.2,0.8-0.2c0.1,0,0.2-0.4,0.2-1.1c0.1-1.3,0.6-4.7,0.9-6.1
		c0.4-1.8,0.6-2.4,0.9-3.5c0.7-2.1,1.2-3.1,2.1-4.4c0.5-0.7,0.7-0.9,1.4-1.4c1-0.7,1.8-1,2.8-1.1c0.2,0,0.4,0,0.6,0l0.2,0
		c0.5,0,1,0.2,1.4,0.3c0.6,0.3,1.5,0.9,1.8,1.4c0.5,0.7,0.9,1.7,0.9,2.3c-0.1,0.6-0.6,1.4-1.2,1.6c-0.2,0.1-0.4,0.1-0.5,0.1
		c-0.4,0-0.7-0.3-1.1-0.9c-0.4-0.5-1.1-1.1-1.3-1.1c-0.1,0-0.7,0.4-0.9,0.8c-0.3,0.3-0.9,1.8-1.3,2.8c-0.7,2.1-1.5,5.9-1.7,9
		l-0.1,1.1c1.2,0.1,1.3,0.1,2,0.1c0.5,0,0.8,0.1,1.4,0.2c1.5,0.4,1.9,0.8,1.9,1.5l0,0.2c0,0.2-0.6,0.6-1,0.8
		c-0.8,0.3-1.9,0.4-3.2,0.3c-0.7,0-1.3,0-1.4,0c-0.1,0-0.1,0.2-0.1,0.5c-0.1,1.3-0.1,5.2,0,7.6c0,0.8,0.1,1.9,0.1,2.4l0,1.8
		c0,0.2-0.1,0.3-0.2,0.4c-0.1,0.1-0.4,0.3-0.5,0.3c-0.2,0.1-0.5,0.1-0.7,0.1C320.3,238.4,320,238.3,319.8,238.2"/>
	<path fill="#5DAB9E" d="M335.6,237.1c-0.7-0.3-1.1-0.7-1.7-1.4c-1.1-1.3-1.3-2.6-1.1-6.5l0.3-6.4c0-0.6,0.1-1.5,0.2-2.6
		c0.2-1.7,0.5-3.7,0.6-4.4c0.1-0.4,0.2-1.1,0.3-1.5c0.8-4.7,2.2-7.5,3.8-7.7c0.1,0,0.3,0,0.4,0l0,0c0.9,0.1,1.4,1,1.6,2.4
		c0,0.5,0,1.1-0.1,1.9c-0.1,0.9-0.3,1.9-0.5,3c-0.5,2.4-1.1,5.4-1.9,9.5c-0.2,1-0.4,2.9-0.6,4.7c-0.2,1.8-0.4,3.5-0.4,4.1
		c0,2.2,0.1,2.7,0.7,3.1c0.4,0.2,0.6,0.5,0.5,0.9c-0.1,0.7-0.9,1.1-1.7,1.1C336.1,237.2,335.8,237.2,335.6,237.1"/>
	<path fill="#5DAB9E" d="M347.6,233c0.6-0.2,1.8-1.1,2.3-1.8c0.6-0.8,0.9-1.3,1.2-2.2c0.2-0.5,0.3-0.9,0.3-1.4
		c0.1-1.1,0-1.9-0.5-2.6c-0.4-0.5-0.8-0.8-1.7-0.9l-0.4-0.1c-0.3,0-0.4,0-0.6,0.1c-0.1,0.1-0.5,0.4-0.7,0.8
		c-0.8,1.3-1.4,2.7-1.6,4.3c-0.2,1.7-0.1,2.7,0.4,3.4c0.2,0.3,0.4,0.4,0.6,0.5C347.2,233.2,347.4,233.1,347.6,233 M345.4,237.5
		c-0.3-0.1-0.8-0.4-1.2-0.6c-0.5-0.4-0.8-0.6-1.2-1.2c-0.6-0.8-0.8-1.2-1.1-2.5c-0.3-1.1-0.3-2.5-0.1-3.9c0.2-1.8,0.8-3.6,1.7-5.1
		c1-1.7,2.4-3.1,3.7-3.7c0.6-0.3,1-0.3,1.6-0.3l1.1,0c0.3,0,0.5,0,0.8,0.1c0.8,0.1,1.8,0.5,2.4,1c1,0.8,1.6,1.7,2.3,3.7
		c0.4,1,0.5,2.5,0.3,4.1c-0.1,1.1-0.3,1.7-1,3.1c-1.1,2.3-2.5,3.8-4.4,4.8c-1,0.5-1.6,0.7-2.4,0.9c-0.5,0.1-1.1,0-1.6,0
		C345.9,237.6,345.6,237.6,345.4,237.5"/>
	<path fill="#5DAB9E" d="M368.8,240.9c-0.6-0.4-0.9-1.3-1.1-3.4c-0.1-0.6-0.1-1.2-0.1-1.2l-0.5,0.7c-1.1,1.8-2.8,2.7-4.4,2.4l-0.3,0
		c-1.5-0.4-2.5-1.4-3-3c-0.4-1.4-0.5-2.7-0.3-5l0.2-1.2c0.3-2.1,0.9-4.2,1.5-5.7c0.7-1.5,1.1-2.1,1.9-2.3c0.3-0.1,0.5-0.1,0.7-0.1
		l0.1,0c0.8,0.1,1.3,0.9,1.4,2c0,0.3-0.2,1.8-0.6,4.3c-0.5,3.7-0.6,4-0.5,4.7c0,0.4,0.1,0.8,0.1,0.8l0,0c0,0,0.1,0,0.2-0.1
		c0.3-0.3,1.6-2.1,2.7-3.7c2.9-4.2,3-4.3,3.8-4.6c0.3-0.1,0.4-0.1,0.7-0.1l0.3,0.1c0.8,0.2,1.4,0.7,1.7,1.5c0.2,0.6,0.2,1-0.1,3.1
		l-0.7,3.9c-0.7,3.8-1.2,5.9-1.5,6.4c-0.4,0.5-0.9,0.7-1.5,0.6C369.2,241.1,369,241,368.8,240.9"/>
	<path fill="#5DAB9E" d="M377.3,243.1c-0.6-0.3-1.2-0.9-1.4-1.7c-0.3-1.2-0.2-3.9,0.4-7.1l0.3-1.5c0.8-3.7,1.8-6.5,2.7-7.8
		c0.6-0.9,1.4-1.3,2.1-1.2l0.1,0c0.7,0.1,1.2,0.6,1.4,1.5c0.1,0.5,0.1,1,0,1.8l-0.3,1.2l-0.5,2.1c1.3-1.6,1.8-2.1,2.7-2.8
		c0.9-0.6,1.4-0.8,2.1-0.7l0.3,0c0.3,0,0.4,0.1,0.7,0.3c0.7,0.5,1.2,1.4,1.5,2.7c0.1,0.4,0.1,0.7,0.1,1c-0.1,0.4-0.3,0.6-0.6,0.7
		c-0.2,0.1-0.3,0.1-0.5,0c-0.4-0.1-0.7-0.3-1.1-0.8c-0.2-0.3-0.4-0.5-0.5-0.5c-0.2,0-0.9,0.5-1.3,0.9c-1.3,1.4-2.4,3.5-3.7,7.2
		c-1.2,3.5-1.3,3.6-2,4.1c-0.5,0.4-1.2,0.6-1.8,0.5L377.3,243.1z"/>
	<path fill="#5DAB9E" d="M396,225.1c-0.5-0.4-0.7-0.7-0.8-1.4c-0.1-0.3-0.1-0.4,0-0.7l0.2-0.8c0.3-1.1,0.6-1.6,1.2-2
		c0.5-0.4,1-0.5,1.7-0.4l0.4,0.1c0.3,0.1,0.4,0.2,0.6,0.4c0.7,0.6,0.9,1.5,0.6,2.9l0,0.2c-0.2,0.8-0.4,1.2-0.8,1.6
		c-0.6,0.5-1.3,0.7-2,0.6C396.7,225.5,396.3,225.3,396,225.1 M392.4,245.7c-0.9-0.7-1.1-1.9-0.8-4.6c0.3-2.5,0.7-5.1,1.1-7.2
		c0.3-1.4,0.6-2.6,0.8-3.3c0.3-0.9,0.9-2,1.4-2.4c0.6-0.5,1.2-0.7,1.9-0.6l0.3,0.1c0.7,0.2,1.1,0.6,1.3,1.3c0.2,0.7,0.2,1.5-0.1,3
		c-0.2,0.9-0.5,2.1-0.9,3.7c-0.4,1.7-0.8,3.3-1.1,4.8c-0.2,0.8-0.3,1.7-0.4,2.5l-0.1,0.4c-0.1,0.4-0.2,0.9-0.3,1.2
		c-0.3,0.9-0.6,1.3-1.3,1.5c-0.3,0.1-0.6,0.1-0.9,0C392.9,246,392.6,245.9,392.4,245.7"/>
	<path fill="#5DAB9E" d="M402,247.7c-1.4-0.6-2.2-1.5-2.5-2.8c-0.2-0.6-0.3-1.6-0.2-2.1l0-0.3c0.2-0.9,0.8-1.7,1.7-2.3
		c0.6-0.4,0.6-0.4,0.9-0.3c0.4,0.1,0.6,0.3,0.6,0.7c0,0.1,0,0.2,0,0.3c0,0.2-0.1,0.5-0.3,1l-0.1,0.4c-0.2,0.8-0.1,1.7,0.3,2
		c0.2,0.2,0.5,0.3,0.8,0.4l0.4,0c0.7,0,1.2-0.2,1.7-0.6c0.2-0.1,0.3-0.3,0.3-0.5c0.2-0.7-0.4-1.9-1.6-3.8c-1.3-1.9-1.9-3.4-2-4.9
		c0-0.6,0-0.8,0.1-1.5c0.2-0.9,0.4-1.4,1.2-2.2c0.6-0.7,1.8-1.5,2.6-1.7c0.8-0.2,1.5-0.2,2.3-0.1l0.1,0c0.7,0.1,1.3,0.5,1.9,0.9
		c0.4,0.3,0.6,0.5,0.9,1c0.7,1.1,0.8,1.7,0.6,2.6c-0.1,0.5-0.2,0.7-0.4,1c-0.5,0.8-1.3,1.3-1.9,1.2l-0.2,0c-0.4-0.1-0.5-0.3-0.5-1
		c-0.1-0.6-0.1-0.7-0.3-1.1c-0.3-0.5-0.7-0.9-1.2-1c-0.2-0.1-0.5,0-0.7,0.1c-0.2,0.1-0.2,0.2-0.3,0.4c-0.1,0.3,0,0.4,0.3,1.1
		c0.2,0.4,0.4,0.8,1,1.5c0.9,1.1,1.3,1.8,1.8,2.8c0.8,1.6,1,3.3,0.7,4.8l-0.1,0.3c-0.3,1.2-1.2,2.4-2.3,3.1c-1,0.7-1.9,0.9-3.3,1
		c-0.4,0-0.8,0-1.2-0.1C402.8,248,402.4,247.9,402,247.7"/>
	<path fill="#5DAB9E" d="M414.9,251.3c-0.6-0.4-1.1-1-1.3-1.7c-0.2-0.6-0.3-2.1-0.1-3.3c0.1-1.2,0.5-3.3,1.1-5.5
		c0.5-2.3,1.2-4.6,1.8-6.3c0.8-2.3,2.2-6.2,2.5-6.8c0.1-0.2,0.3-0.8,0.5-1.3c0.2-0.5,0.5-1.2,0.7-1.7c0.2-0.4,0.4-0.9,0.5-1.1
		c0.3-0.8,1.1-2.3,1.4-2.7c0.5-0.8,1.1-1.1,1.7-1c0.2,0,0.4,0.1,0.6,0.3c0.5,0.4,0.8,1.5,0.7,2.7c0,0.2-0.1,0.7-0.2,1.2
		c-0.2,0.9-0.6,2.1-0.9,3l-0.6,1.8c-0.2,0.5-0.5,1.5-0.8,2.1c-1.6,4.4-2.6,7.4-3.4,10.6l-0.7,2.6c3.6-3.6,4.6-4.8,6.8-5.9
		c1.8-0.9,3.3-1.2,4.5-0.9c0.7,0.2,1.3,0.5,1.8,1.1c0.4,0.5,0.6,1,0.7,1.8c0,0.5,0.1,0.6-0.1,1.2l-0.3,1.2c-0.2,0.9-1,3.7-1.6,6.2
		c-1.3,5.1-1.2,4.9-2,5c-0.2,0-0.5,0-0.7,0c-0.3-0.1-0.6-0.2-0.8-0.5c-0.7-0.6-1-2.3-0.8-4.3c0.1-0.9,0.8-4.5,1.3-6.6
		c0.2-0.9,0.4-1.6,0.4-1.6l0,0c-0.2-0.1-2,1.4-2.9,2.3c-0.8,0.8-3.1,3.9-3.9,5.1c-0.4,0.7-1.5,1.9-2.1,2.4c-0.5,0.5-1.2,0.8-1.8,0.9
		c-0.3,0.1-0.9,0-1.4-0.1C415.2,251.4,415.1,251.4,414.9,251.3"/>
</g>
</svg>
